<?xml version="1.0" encoding="UTF-8"?>
<svg xmlns="http://www.w3.org/2000/svg" viewBox="0 0 5000 5000">
  <defs>
    <style>
      .uuid-ad4640f7-39c3-46c4-b79c-2b3933cb6156 {
        fill: #ffc64c;
      }

      .uuid-ad4640f7-39c3-46c4-b79c-2b3933cb6156, .uuid-3a5a32f0-c295-4ae3-9ad7-536572c49f57, .uuid-e4f3ddff-f7dc-4e95-ba6b-6da282e95d11, .uuid-7ff26c7c-313f-4ed0-868a-2486658c48db, .uuid-6f4805bb-1895-49e5-b578-197ce66d3b0d, .uuid-f38f30da-3d51-450b-923a-942874b98f5a, .uuid-f18fb31f-a189-4bbf-aa2c-d1b6c8584659, .uuid-eedbfb77-c462-420c-b3c0-e666480b68b9, .uuid-e676ac51-9900-4f6a-a2d4-4c225bef032f, .uuid-cf0b22ca-f707-4d95-9d70-bb2265471743, .uuid-f3b09b45-2627-47e6-b3b3-d8e83576a007, .uuid-169e1d29-8d22-4d53-bb0d-13192de93ca6, .uuid-d9eb343b-05d8-4823-89f6-8bca674f81b9, .uuid-aec2b766-5c38-4c16-9fc7-af78df902ef8, .uuid-a179da58-3618-4ef8-a81e-a4b1db6d74b3, .uuid-88a49259-9948-430d-90b9-ca6463c25f84, .uuid-deab5b8f-3b76-430e-9908-11d2401ec3d0, .uuid-6c62a830-e015-40f5-9f8e-10782b2d43b5, .uuid-38126479-77be-40be-975a-3546fd4d2807, .uuid-7090b106-f918-4f1a-8c45-c26bf00433df, .uuid-d5a7d151-4386-46c9-9dff-311fb17720e1, .uuid-54cbc66b-2123-4deb-a085-a8d23f1bbdc3, .uuid-efdcd9c7-10fb-4849-a69d-c38d2040e755, .uuid-83dbd728-7c55-4125-85f1-c7cc1dfb87db, .uuid-1ced59fc-ca65-42ef-bb78-461e5a8a8b8a, .uuid-a1ecbd24-1d6b-44af-a40b-289fbbbf0f06, .uuid-2ae6793a-d822-46a5-afb6-4fef36038a80, .uuid-5e21c964-ecfc-4262-a4cf-0172031c08ca {
        stroke-width: 0px;
      }

      .uuid-3a5a32f0-c295-4ae3-9ad7-536572c49f57 {
        opacity: .2;
      }

      .uuid-3a5a32f0-c295-4ae3-9ad7-536572c49f57, .uuid-1ced59fc-ca65-42ef-bb78-461e5a8a8b8a, .uuid-a1ecbd24-1d6b-44af-a40b-289fbbbf0f06 {
        fill: #ffec00;
      }

      .uuid-e4f3ddff-f7dc-4e95-ba6b-6da282e95d11 {
        fill: #011e3b;
      }

      .uuid-7ff26c7c-313f-4ed0-868a-2486658c48db {
        mix-blend-mode: multiply;
        opacity: .15;
      }

      .uuid-7ff26c7c-313f-4ed0-868a-2486658c48db, .uuid-6f4805bb-1895-49e5-b578-197ce66d3b0d {
        fill: #993952;
      }

      .uuid-f38f30da-3d51-450b-923a-942874b98f5a {
        fill: #b3afe0;
      }

      .uuid-f18fb31f-a189-4bbf-aa2c-d1b6c8584659 {
        fill: #8795d6;
      }

      .uuid-eedbfb77-c462-420c-b3c0-e666480b68b9, .uuid-e676ac51-9900-4f6a-a2d4-4c225bef032f {
        fill: #3743ac;
      }

      .uuid-e676ac51-9900-4f6a-a2d4-4c225bef032f, .uuid-1ced59fc-ca65-42ef-bb78-461e5a8a8b8a {
        opacity: .6;
      }

      .uuid-9ce0ed40-28db-4a51-9f4f-f8963d30a38f {
        isolation: isolate;
      }

      .uuid-cf0b22ca-f707-4d95-9d70-bb2265471743 {
        fill: #edb28e;
      }

      .uuid-f3b09b45-2627-47e6-b3b3-d8e83576a007 {
        fill: #24206c;
      }

      .uuid-bb168231-64f1-4017-94b0-4ab2782dd2cf {
        opacity: .35;
      }

      .uuid-169e1d29-8d22-4d53-bb0d-13192de93ca6 {
        fill: #c2bfe0;
      }

      .uuid-d9eb343b-05d8-4823-89f6-8bca674f81b9 {
        fill: #ef6361;
      }

      .uuid-aec2b766-5c38-4c16-9fc7-af78df902ef8 {
        fill: #ffe1cc;
      }

      .uuid-a179da58-3618-4ef8-a81e-a4b1db6d74b3 {
        fill: background;
      }

      .uuid-88a49259-9948-430d-90b9-ca6463c25f84 {
        fill: #b6b8ba;
      }

      .uuid-deab5b8f-3b76-430e-9908-11d2401ec3d0 {
        fill: #999dc4;
      }

      .uuid-6c62a830-e015-40f5-9f8e-10782b2d43b5 {
        fill: #983952;
      }

      .uuid-38126479-77be-40be-975a-3546fd4d2807 {
        fill: #c9364f;
      }

      .uuid-7090b106-f918-4f1a-8c45-c26bf00433df {
        fill: #e0e1e2;
      }

      .uuid-d5a7d151-4386-46c9-9dff-311fb17720e1 {
        fill: #ff8964;
      }

      .uuid-54cbc66b-2123-4deb-a085-a8d23f1bbdc3 {
        opacity: .1;
      }

      .uuid-54cbc66b-2123-4deb-a085-a8d23f1bbdc3, .uuid-efdcd9c7-10fb-4849-a69d-c38d2040e755 {
        fill: #5f52dc;
      }

      .uuid-83dbd728-7c55-4125-85f1-c7cc1dfb87db {
        fill: #bdbfe2;
      }

      .uuid-a1ecbd24-1d6b-44af-a40b-289fbbbf0f06 {
        opacity: .4;
      }

      .uuid-2ae6793a-d822-46a5-afb6-4fef36038a80 {
        fill: #43205c;
      }

      .uuid-5e21c964-ecfc-4262-a4cf-0172031c08ca {
        fill: #6175c1;
      }
    </style>
  </defs>
  <g class="uuid-9ce0ed40-28db-4a51-9f4f-f8963d30a38f">
    <g id="uuid-6c3e7dda-e63f-4490-adfd-5f105e937533" data-name="Layer 1">
      <g>
        <rect class="uuid-a179da58-3618-4ef8-a81e-a4b1db6d74b3" width="5000" height="5000"/>
        <path class="uuid-54cbc66b-2123-4deb-a085-a8d23f1bbdc3" d="m1088.45,4416.06c37.41,29.06,77.05,56.96,118.71,83.73h3442.69c3.42-4.31,6.78-8.64,10.05-13,419.49-559.68,188.59-972.42-29.47-1367.29-218.06-394.86,5.89-713.11,76.62-942.96,271.1-795.62-518.97-1325.6-925.6-1316.76-85.63,1.86-162.05,2.94-229.34,3.48-225.32,1.81-447.46-52.81-646.36-158.67-1732.94-922.38-1854.89,509.25-1899.81,823.67-47.15,330.04-188.59,318.25-660.07,766.15-471.48,447.9-71.48,1489.32,742.58,2121.65Z"/>
        <g>
          <g>
            <g>
              <g>
                <path class="uuid-efdcd9c7-10fb-4849-a69d-c38d2040e755" d="m3963.07,3693.49c14.69-47.1,38.08-91.8,54.93-138.21,17.59-48.44,41.4-96.53,35.09-149.54-12.76-107.23-104.51-13.01-130.94,27.42-45.8,70.04-68.23,166.64-74.82,249.12-5.83,72.94-.96,146.25,6.69,219.08,1.5,14.3,14.88,24.28,29.03,21.7h0c8.89-1.62,16.2-7.95,19.05-16.52,23.34-70.14,38.97-142.51,60.97-213.05Z"/>
                <path class="uuid-efdcd9c7-10fb-4849-a69d-c38d2040e755" d="m4668.98,3607.63c-28.07-105.44-220.98-51.96-288.68-26.33-100.45,38.05-189.87,107.91-262.23,183.89-76.92,80.76-140.33,175.75-199.63,273.83-12.88,21.3-7.35,48.92,12.76,63.58h0c15.23,11.1,35.57,12.29,51.92,2.93,94.75-54.19,182.28-119.92,276.07-175.65,88.9-52.82,185.81-89.19,275.7-139.58,62.77-35.19,156.78-97.36,134.08-182.67Z"/>
                <path class="uuid-efdcd9c7-10fb-4849-a69d-c38d2040e755" d="m3943.94,3840.67c8.76,33.3,52.05,41.74,72.77,14.24,62.53-82.98,127.39-157.82,199.02-238.35,37.95-42.67,72.22-92.7,86.07-148.83,8.58-34.79,11.64-117.87-42.51-114.52-83.92,5.2-152.12,114.55-190.34,176.83-55.18,89.9-89.7,187.15-124.1,286.68-2.67,7.71-2.98,16.05-.9,23.95h0Z"/>
              </g>
              <path class="uuid-f3b09b45-2627-47e6-b3b3-d8e83576a007" d="m3930.56,3963.3c-.33,0-.66-.06-.98-.18-1.42-.54-2.14-2.13-1.6-3.55,66.13-174.12,145.74-310.5,200.88-394.24,59.77-90.78,104.53-141.06,104.97-141.56,1.02-1.14,2.75-1.23,3.89-.22,1.13,1.01,1.23,2.75.22,3.89-.44.5-44.99,50.55-104.56,141.03-54.97,83.49-134.33,219.45-200.26,393.05-.42,1.1-1.46,1.78-2.57,1.78Z"/>
              <path class="uuid-f3b09b45-2627-47e6-b3b3-d8e83576a007" d="m3885.62,4133.65c-.64,0-1.28-.22-1.81-.68-1.15-1-1.26-2.74-.27-3.88,199.3-228.8,368.3-349.73,474.98-410.88,115.8-66.38,185.49-78.73,186.18-78.84,1.48-.26,2.92.76,3.17,2.25.25,1.5-.75,2.92-2.25,3.17-.68.12-69.68,12.39-184.75,78.41-106.23,60.95-274.55,181.47-473.18,409.5-.54.63-1.31.94-2.08.94Z"/>
              <path class="uuid-f3b09b45-2627-47e6-b3b3-d8e83576a007" d="m3867.05,3991.06s-.08,0-.13,0c-1.52-.07-2.69-1.35-2.62-2.87,9.46-210.04,46.76-351.57,76.39-433.32,32.18-88.78,62.63-128.41,62.93-128.8.94-1.2,2.66-1.41,3.86-.48,1.2.93,1.42,2.66.48,3.86-.3.39-30.35,39.57-62.24,127.67-29.44,81.34-66.51,222.2-75.93,431.31-.07,1.48-1.28,2.63-2.75,2.63Z"/>
            </g>
            <g>
              <path class="uuid-efdcd9c7-10fb-4849-a69d-c38d2040e755" d="m1624.08,3607.61c-3.99-114.88-29.08-250.34-88.26-350.4-34.15-57.75-155.59-194.24-180-46.23-12.07,73.18,17.98,141.4,39.35,209.73,20.48,65.46,50.15,128.96,67.59,195.23,26.13,99.28,43.29,200.71,71.31,299.53,3.42,12.05,13.17,21.26,25.38,24.06h0c19.52,4.47,38.68-8.63,41.67-28.42,15.16-100.56,26.48-201.95,22.96-303.5Z"/>
              <path class="uuid-efdcd9c7-10fb-4849-a69d-c38d2040e755" d="m1413.54,3597.16c-49.01-106.21-118.21-212.1-210.5-288.39-62.2-51.41-246.49-177.26-314.05-76.12-54.65,81.84,22.16,181.27,75.72,240.99,76.7,85.52,165.86,158.77,240.65,246.5,78.9,92.56,147.6,193.41,228.06,284.68,13.89,15.76,35.78,21.82,55.84,15.59h0c26.46-8.22,42.28-35.31,36.37-62.38-27.26-124.86-59.99-247.94-112.1-360.87Z"/>
              <path class="uuid-efdcd9c7-10fb-4849-a69d-c38d2040e755" d="m1313.12,3929.68c-75.91-93.58-164.75-176.66-263.22-246.12-33.27-23.47-203.09-138.64-202.65-26.43.31,76.95,92.36,121.21,149.13,151.04,96.71,50.83,200,89.87,294.41,144.21,14.75,8.49,31.13-8.14,22.33-22.71h0Z"/>
              <path class="uuid-f3b09b45-2627-47e6-b3b3-d8e83576a007" d="m1381.01,4029.68c-.71,0-1.42-.27-1.96-.81-242.16-242.16-476.58-347.95-478.92-348.99-1.4-.62-2.03-2.26-1.41-3.66.62-1.4,2.26-2.03,3.66-1.41.59.26,59.8,26.78,148.22,82.96,81.56,51.82,205.43,140.24,332.37,267.18,1.08,1.08,1.08,2.84,0,3.92-.54.54-1.25.81-1.96.81Z"/>
              <path class="uuid-f3b09b45-2627-47e6-b3b3-d8e83576a007" d="m1527.19,4069.44c-1.09,0-2.13-.65-2.57-1.72-127.63-312.38-262-500.23-352.25-602.81-97.61-110.94-165.78-148.55-166.46-148.91-1.35-.73-1.85-2.41-1.12-3.76.73-1.35,2.41-1.85,3.76-1.12.69.37,69.72,38.45,167.98,150.13,57.63,65.5,113.96,143.18,167.42,230.89,66.81,109.59,129.32,235.25,185.8,373.48.58,1.42-.1,3.04-1.52,3.62-.34.14-.7.21-1.05.21Z"/>
              <path class="uuid-f3b09b45-2627-47e6-b3b3-d8e83576a007" d="m1577.59,4033.86c-1.53,0-2.77-1.24-2.77-2.77,0-291.25-42.76-489.29-78.63-604.15-38.8-124.23-77.98-180.28-78.37-180.83-.89-1.25-.59-2.98.66-3.87,1.25-.89,2.98-.59,3.87.66.4.56,40.08,57.33,79.14,182.39,35.98,115.23,78.88,313.86,78.88,605.8,0,1.53-1.24,2.77-2.77,2.77Z"/>
            </g>
            <g>
              <path class="uuid-169e1d29-8d22-4d53-bb0d-13192de93ca6" d="m4364.77,4048.5c249.76,29.91,448.41,279.49,455.05,444.37h-910.1c0-234.57,178.76-477.45,455.05-444.37Z"/>
              <path class="uuid-f3b09b45-2627-47e6-b3b3-d8e83576a007" d="m4400.64,4055.13c.7-1.35.18-3.01-1.17-3.71-1.35-.7-3.01-.18-3.71,1.17l-72.59,139.31-9.34-146.61c-.1-1.51-1.34-2.68-2.92-2.57-1.52.1-2.67,1.4-2.57,2.92l28.5,447.41c.09,1.46,1.3,2.58,2.74,2.58.06,0,.12,0,.18,0,1.52-.1,2.67-1.4,2.57-2.92l-18.49-290.19,76.79-147.37Z"/>
              <path class="uuid-f3b09b45-2627-47e6-b3b3-d8e83576a007" d="m4142.14,4380.38l27.6-305.01c.14-1.51-.98-2.85-2.49-2.99-1.5-.13-2.85.98-2.99,2.49l-26.91,297.27-111.49-191.81c-.76-1.31-2.45-1.76-3.76-1-1.31.76-1.76,2.45-1,3.76l115.8,199.22s0,0,0,0l65.06,111.92c.51.88,1.43,1.37,2.38,1.37.47,0,.95-.12,1.38-.37,1.31-.76,1.76-2.45,1-3.76l-64.59-111.11Z"/>
              <path class="uuid-f3b09b45-2627-47e6-b3b3-d8e83576a007" d="m3929.64,4360.36c-1.17-.97-2.9-.82-3.87.35-.97,1.17-.82,2.9.35,3.87l71.28,59.52-81.08-10.45c-1.48-.21-2.89.87-3.08,2.38-.2,1.51.87,2.89,2.38,3.08l89.64,11.55,77.03,64.32c.51.43,1.14.64,1.76.64.79,0,1.57-.34,2.11-.99.97-1.17.82-2.9-.35-3.87l-156.16-130.4Z"/>
              <path class="uuid-f3b09b45-2627-47e6-b3b3-d8e83576a007" d="m4712.83,4254.68c1.39-.63,2-2.25,1.38-3.64-.62-1.39-2.26-2-3.64-1.38l-224.32,100.97,40.13-56.98s0,0,0,0l93.42-132.65c.87-1.24.58-2.96-.67-3.83-1.24-.87-2.96-.58-3.83.67l-89.55,127.15-33.77-203.17c-.25-1.5-1.67-2.51-3.16-2.26-1.5.25-2.51,1.67-2.26,3.16l34.68,208.67-140.78,199.9c-.87,1.24-.58,2.96.67,3.83.48.34,1.03.5,1.58.5.86,0,1.72-.41,2.25-1.17l95.06-134.99,232.8-104.79Z"/>
              <path class="uuid-f3b09b45-2627-47e6-b3b3-d8e83576a007" d="m4806.86,4417.75l-105.39-16.45,76.37-50.1c1.27-.83,1.62-2.54.79-3.81-.83-1.27-2.54-1.63-3.81-.79l-219.46,143.96c-1.27.83-1.63,2.54-.79,3.81.53.8,1.41,1.24,2.3,1.24.52,0,1.04-.15,1.51-.45l136.23-89.36,111.4,17.38c.14.02.29.03.43.03,1.33,0,2.5-.97,2.72-2.33.23-1.5-.79-2.91-2.29-3.14Z"/>
            </g>
            <g>
              <path class="uuid-f38f30da-3d51-450b-923a-942874b98f5a" d="m1466.4,3792.63c-393.42,47.11-706.31,440.25-716.78,699.95h1433.55c0-369.48-281.57-752.06-716.77-699.95Z"/>
              <path class="uuid-f3b09b45-2627-47e6-b3b3-d8e83576a007" d="m2005.37,4000.08c-1.33-.77-3.02-.32-3.79,1l-178.08,306.36-42.82-473.14c-.14-1.53-1.49-2.63-3.01-2.51-1.53.14-2.65,1.49-2.51,3.01l43.53,480.93-101.98,175.44c-.77,1.33-.32,3.02,1,3.79.44.25.92.38,1.39.38.96,0,1.89-.49,2.4-1.38l284.88-490.1c.77-1.33.32-3.02-1-3.79Z"/>
              <path class="uuid-f3b09b45-2627-47e6-b3b3-d8e83576a007" d="m2176.09,4371.73c-.2-1.52-1.57-2.6-3.11-2.4l-133.02,17.14,116.37-97.17c1.18-.98,1.33-2.73.35-3.91-.98-1.18-2.73-1.33-3.91-.35l-123.72,103.31s0,0,0,0l-122.25,102.08c-1.18.98-1.33,2.73-.35,3.91.55.66,1.34,1,2.13,1,.63,0,1.26-.21,1.78-.64l121.69-101.61,141.64-18.26c1.52-.19,2.59-1.59,2.4-3.1Z"/>
              <path class="uuid-f3b09b45-2627-47e6-b3b3-d8e83576a007" d="m1673.34,3798.63c-1.32-.79-3.02-.35-3.8.96l-130.52,219,14.69-230.55c.1-1.53-1.06-2.85-2.59-2.94-1.51-.06-2.85,1.06-2.94,2.59l-22.03,345.85-242.99-293.99c-.98-1.18-2.72-1.35-3.9-.37-1.18.98-1.35,2.72-.37,3.91l246.75,298.54-22.35,350.77c-.1,1.53,1.06,2.85,2.59,2.94.06,0,.12,0,.18,0,1.45,0,2.67-1.13,2.77-2.6l29.43-462.02,136.05-228.3c.78-1.31.35-3.02-.96-3.8Z"/>
              <path class="uuid-f3b09b45-2627-47e6-b3b3-d8e83576a007" d="m1116.45,3931.6c-.8-1.3-2.51-1.71-3.82-.9-1.3.8-1.71,2.51-.9,3.82l219.73,356.3-366.78-229c-1.3-.81-3.01-.42-3.82.88-.81,1.3-.42,3.01.88,3.82l376.27,234.93,120.48,195.36c.52.85,1.43,1.32,2.36,1.32.5,0,1-.13,1.45-.41,1.3-.8,1.71-2.51.91-3.82l-346.76-562.3Z"/>
              <path class="uuid-f3b09b45-2627-47e6-b3b3-d8e83576a007" d="m1057.24,4378.4s-.01,0-.02-.01l-200.62-177.59c-1.15-1.02-2.9-.91-3.91.24-1.02,1.15-.91,2.9.24,3.91l193.58,171.36-261.85-39.16c-1.51-.24-2.93.82-3.15,2.33-.23,1.51.82,2.93,2.33,3.15l270.29,40.42,126.06,111.59c.53.47,1.18.7,1.84.7.77,0,1.53-.32,2.08-.94,1.02-1.15.91-2.9-.24-3.91l-126.63-112.1Z"/>
            </g>
            <g>
              <path class="uuid-f38f30da-3d51-450b-923a-942874b98f5a" d="m3515.48,3646.12c475.93,56.99,854.44,532.58,867.1,846.75h-1734.2c0-446.97,340.62-909.78,867.1-846.75Z"/>
              <path class="uuid-f3b09b45-2627-47e6-b3b3-d8e83576a007" d="m3741.87,3706.79c.97-1.17.8-2.91-.37-3.87-1.17-.97-2.91-.8-3.87.37l-294.93,356.82-26.75-419.91c-.1-1.51-1.34-2.69-2.92-2.57-1.52.1-2.67,1.4-2.57,2.92l17.93,281.4-159.17-267.09c-.78-1.31-2.47-1.73-3.77-.95-1.31.78-1.73,2.47-.95,3.77l164.66,276.3,35.62,559.07c.09,1.46,1.3,2.58,2.74,2.58.06,0,.12,0,.18,0,1.52-.1,2.67-1.4,2.57-2.92l-27.05-424.57,298.66-361.33Z"/>
              <path class="uuid-f3b09b45-2627-47e6-b3b3-d8e83576a007" d="m3088.71,4279.08l52.67-581.98c.14-1.51-.98-2.85-2.49-2.99-1.49-.11-2.85.98-2.99,2.49l-51.97,574.25-216.38-372.26c-.76-1.31-2.45-1.76-3.76-1-1.31.76-1.76,2.45-1,3.76l344.63,592.89c.51.88,1.43,1.37,2.38,1.37.47,0,.95-.12,1.38-.37,1.31-.76,1.76-2.45,1-3.76l-123.47-212.4Z"/>
              <path class="uuid-f3b09b45-2627-47e6-b3b3-d8e83576a007" d="m2684.76,4242.28c-1.17-.97-2.9-.82-3.88.35-.97,1.17-.82,2.9.35,3.87l142.37,118.88-162.97-21.01c-1.48-.21-2.89.87-3.08,2.38-.2,1.51.87,2.89,2.38,3.08l171.53,22.11,147.34,123.03c.52.43,1.14.64,1.76.64.79,0,1.57-.34,2.11-.99.97-1.17.82-2.9-.35-3.87l-297.57-248.47Z"/>
              <path class="uuid-f3b09b45-2627-47e6-b3b3-d8e83576a007" d="m4042.42,3896.2c1.24-.88,1.54-2.59.66-3.83-.88-1.24-2.59-1.54-3.83-.66l-245.55,173.32,153.48-246.85c.8-1.29.41-2.99-.88-3.79-1.29-.8-2.99-.41-3.79.88l-160.64,258.37s-.01.02-.02.03l-259.74,417.74c-.8,1.29-.41,2.99.88,3.79.45.28.95.42,1.45.42.92,0,1.82-.46,2.34-1.3l259.45-417.28,256.19-180.83Z"/>
              <path class="uuid-f3b09b45-2627-47e6-b3b3-d8e83576a007" d="m4353.56,4335.4c-.33-1.48-1.78-2.41-3.28-2.09l-408.54,90.42,315.47-279.25c1.14-1.01,1.24-2.75.24-3.88-1-1.14-2.74-1.25-3.88-.24l-170.57,150.99,96.45-255.79c.54-1.42-.18-3.01-1.6-3.54-1.43-.54-3.01.18-3.54,1.6l-100.13,265.54-216.51,191.65c-1.14,1.01-1.24,2.75-.24,3.88.54.61,1.3.93,2.06.93.65,0,1.3-.23,1.82-.69l71.94-63.68,418.22-92.56c1.48-.33,2.42-1.8,2.09-3.28Z"/>
            </g>
            <g>
              <path class="uuid-169e1d29-8d22-4d53-bb0d-13192de93ca6" d="m638.9,4044.63c-251.77,30.15-452.01,281.74-458.71,447.94h917.43c0-236.45-180.2-481.29-458.71-447.94Z"/>
              <path class="uuid-f3b09b45-2627-47e6-b3b3-d8e83576a007" d="m452.16,4484.61l-202.84-179.48c-1.15-1.02-2.9-.91-3.92.24-1.01,1.15-.91,2.9.24,3.91l119.42,105.67-161.24-25.47c-1.51-.25-2.93.79-3.17,2.31-.24,1.51.79,2.93,2.31,3.17l169.83,26.83,75.7,66.98c.53.47,1.18.7,1.84.7.77,0,1.53-.32,2.08-.94,1.01-1.15.91-2.9-.24-3.91Z"/>
              <path class="uuid-f3b09b45-2627-47e6-b3b3-d8e83576a007" d="m1091.51,4415.44l-81.53,6.5,73.36-61.6c1.17-.98,1.33-2.73.34-3.91-.98-1.17-2.73-1.33-3.91-.34l-79.94,67.13s0,0,0,0l-80.05,67.22c-1.17.98-1.33,2.73-.34,3.91.55.65,1.33.99,2.13.99.63,0,1.26-.21,1.78-.65l79.32-66.61,89.29-7.12c1.53-.12,2.67-1.46,2.54-2.98-.12-1.53-1.44-2.66-2.98-2.54Z"/>
              <path class="uuid-f3b09b45-2627-47e6-b3b3-d8e83576a007" d="m578.96,4491.17l-65.21-111.12,2.57-301.43c.01-1.53-1.22-2.78-2.75-2.8h-.02c-1.52,0-2.76,1.23-2.77,2.75l-2.5,292.16-126.43-215.44c-.78-1.32-2.47-1.76-3.8-.99-1.32.78-1.76,2.48-.99,3.8l197.11,335.88c.52.88,1.44,1.37,2.39,1.37.48,0,.96-.12,1.4-.38,1.32-.78,1.76-2.48.99-3.8Z"/>
              <path class="uuid-f3b09b45-2627-47e6-b3b3-d8e83576a007" d="m775.63,4052.09c.82-1.29.43-3.01-.87-3.82-1.29-.82-3.01-.42-3.83.87l-81.06,128.72,8.67-136.02c.1-1.53-1.06-2.85-2.59-2.94-1.51-.07-2.85,1.06-2.94,2.59l-14.04,220.41-77.17-211.53c-.53-1.44-2.12-2.18-3.56-1.66-1.44.53-2.18,2.12-1.65,3.56l81.51,223.41-13.81,216.73c-.1,1.53,1.06,2.85,2.59,2.94.06,0,.12,0,.18,0,1.45,0,2.67-1.13,2.77-2.6l13.85-217.34s0,0,0,0l5.48-85.97,86.49-137.35Z"/>
              <path class="uuid-f3b09b45-2627-47e6-b3b3-d8e83576a007" d="m986.25,4178.81c-1.31-.79-3.02-.36-3.81.95l-113.19,188.05-25.34-295.3c-.13-1.53-1.48-2.69-3-2.53-1.53.13-2.66,1.47-2.53,3l25.99,302.92-69.36,115.24c-.79,1.31-.37,3.02.95,3.81.45.27.94.4,1.43.4.94,0,1.86-.48,2.38-1.34l187.42-311.38c.79-1.31.37-3.02-.95-3.81Z"/>
            </g>
          </g>
          <g>
            <path class="uuid-5e21c964-ecfc-4262-a4cf-0172031c08ca" d="m969.04,792.32h95.45c.05,0,.09-.04.09-.1-.05-16.92-13.78-30.62-30.71-30.62h-98.58s-.04,0-.06-.02l-286.92-260.84s-.03-.04-.03-.07v-77.45c0-27.94-21.9-51.6-49.83-52.32-28.89-.74-52.54,22.45-52.54,51.17v72.39s-.01.05-.03.07l-293.75,267.04s-.04.02-.06.02h-98.58c-16.93,0-30.66,13.7-30.71,30.62,0,.05.04.1.09.1h198.02s.09.04.09.09l43.47,574.8c0,.05-.04.1-.09.1h-33.17c-.05,0-.09.04-.09.09v71.48c0,.05.04.09.09.09h232.4c.05,0,.09.04.09.09v1426.18c0,.05-.04.09-.09.09h-24.98c-.05,0-.09.04-.09.09v1003.05c0,.05-.04.09-.09.09h-84.05s-.08.03-.09.07l-141.12,595.32s-.05.07-.09.07h-53.47c-15.5,0-28.06,12.56-28.06,28.06h0c0,.05.04.09.09.09h724.09c.05,0,.09-.04.09-.09h0c0-15.5-12.56-28.06-28.06-28.06h-53.47s-.08-.03-.09-.07l-141.12-595.32s-.05-.07-.09-.07h-84.05c-.05,0-.09-.04-.09-.09v-1003.05c0-.05-.04-.09-.09-.09h-24.98c-.05,0-.09-.04-.09-.09v-1426.18c0-.05.04-.09.09-.09h232.4c.05,0,.09-.04.09-.09v-71.48c0-.05-.04-.09-.09-.09h-33.17c-.05,0-.1-.05-.09-.1l43.47-574.8s.04-.09.09-.09h102.57Zm-626.96,10.09h231.31c.05,0,.09.04.09.09v564.7c0,.05-.04.09-.09.09h-188.61s-.09-.04-.09-.09l-42.71-564.7c0-.05.04-.1.09-.1Zm460.48,564.89h-188.61c-.05,0-.09-.04-.09-.09v-564.7c0-.05.04-.09.09-.09h231.31c.05,0,.1.05.09.1l-42.71,564.7s-.04.09-.09.09Z"/>
            <circle class="uuid-3a5a32f0-c295-4ae3-9ad7-536572c49f57" cx="593.68" cy="1082.63" r="394.44"/>
            <circle class="uuid-a1ecbd24-1d6b-44af-a40b-289fbbbf0f06" cx="593.68" cy="1082.63" r="227.33"/>
            <circle class="uuid-1ced59fc-ca65-42ef-bb78-461e5a8a8b8a" cx="593.68" cy="1082.63" r="154.42"/>
          </g>
          <path class="uuid-efdcd9c7-10fb-4849-a69d-c38d2040e755" d="m4906.76,4508.12H93.24c-4.6,0-8.33-3.73-8.33-8.33s3.73-8.33,8.33-8.33h4813.52c4.6,0,8.33,3.73,8.33,8.33s-3.73,8.33-8.33,8.33Z"/>
        </g>
        <g>
          <rect class="uuid-5e21c964-ecfc-4262-a4cf-0172031c08ca" x="3600.44" y="3869.22" width="147.29" height="685.85"/>
          <rect class="uuid-eedbfb77-c462-420c-b3c0-e666480b68b9" x="3600.44" y="3869.22" width="17.01" height="685.85"/>
          <rect class="uuid-5e21c964-ecfc-4262-a4cf-0172031c08ca" x="1276.35" y="3869.22" width="147.29" height="685.85" transform="translate(2699.98 8424.28) rotate(180)"/>
          <rect class="uuid-eedbfb77-c462-420c-b3c0-e666480b68b9" x="1406.63" y="3869.22" width="17.01" height="685.85" transform="translate(2830.26 8424.28) rotate(180)"/>
          <rect class="uuid-5e21c964-ecfc-4262-a4cf-0172031c08ca" x="1538.86" y="2986.99" width="115.42" height="1504.4"/>
          <rect class="uuid-5e21c964-ecfc-4262-a4cf-0172031c08ca" x="3345.73" y="2986.99" width="127.36" height="1504.4"/>
          <polygon class="uuid-f18fb31f-a189-4bbf-aa2c-d1b6c8584659" points="1204.54 2755.09 3771.58 2707.6 3771.58 2986.99 1204.54 2986.99 1204.54 2755.09"/>
          <polygon class="uuid-f18fb31f-a189-4bbf-aa2c-d1b6c8584659" points="1204.54 3062.6 3771.58 3034.71 3771.58 3225.78 1204.54 3252.58 1204.54 3062.6"/>
          <polygon class="uuid-f18fb31f-a189-4bbf-aa2c-d1b6c8584659" points="1204.54 3309.36 3771.58 3285.48 3771.58 3538.13 1204.54 3489.82 1204.54 3309.36"/>
          <polygon class="uuid-f18fb31f-a189-4bbf-aa2c-d1b6c8584659" points="1033.41 3699.39 3966.59 3699.39 3966.59 3866.54 1033.41 3902.36 1033.41 3699.39"/>
          <polygon class="uuid-5e21c964-ecfc-4262-a4cf-0172031c08ca" points="1172.7 3623.77 1033.41 3699.39 3966.59 3699.39 3831.27 3623.77 1172.7 3623.77"/>
        </g>
      </g>
      <g>
        <ellipse class="uuid-e676ac51-9900-4f6a-a2d4-4c225bef032f" cx="1593.61" cy="3646.41" rx="65.63" ry="26.41"/>
        <path class="uuid-cf0b22ca-f707-4d95-9d70-bb2265471743" d="m1656.8,3637.19c0,17.63-120.47,17.63-120.47,0l-38.21-271.45h196.89l-38.21,271.45Z"/>
        <path class="uuid-2ae6793a-d822-46a5-afb6-4fef36038a80" d="m1696.98,3344.72h-28.02c-2.26-5.25-7.47-8.92-13.54-8.92h-117.71c-6.07,0-11.29,3.67-13.54,8.92h-28.02c-2.6,0-4.72,2.11-4.72,4.72v11.59c0,2.6,2.11,4.72,4.72,4.72h200.84c2.6,0,4.72-2.11,4.72-4.72v-11.59c0-2.6-2.11-4.72-4.72-4.72Z"/>
        <polygon class="uuid-2ae6793a-d822-46a5-afb6-4fef36038a80" points="1673.84 3516.12 1683.53 3447.31 1509.6 3447.31 1519.29 3516.12 1673.84 3516.12"/>
        <g class="uuid-bb168231-64f1-4017-94b0-4ab2782dd2cf">
          <path class="uuid-169e1d29-8d22-4d53-bb0d-13192de93ca6" d="m1621.41,3256.85c3.02-2.47,6.39-5.23,10.16-8.39,42.17-46.22,23.41-85.1,5.51-112.84,0-.01-.01-.02-.02-.03-1.99-3.09-3.98-6.05-5.87-8.86-5.65-8.42-10.12-15.06-11.27-20.32-5.96-27.18,5.5-55.94,5.99-57.15.45-1.11,1.72-1.65,2.83-1.2,1.11.45,1.65,1.72,1.2,2.83-.11.28-11.43,28.75-5.77,54.59.97,4.44,5.45,11.11,10.63,18.82,1.3,1.93,2.66,3.97,4.05,6.08,43.41-68.19,7.95-109.74-17.37-128.55-18.55-13.78-27.71-31.81-31.56-41.47-3.27,12.83-9.2,41.46-3.28,61.9,7.76,26.81,4.01,33.98-11.79,64.16-1.2,2.29-2.47,4.71-3.81,7.29-18.25,35.09-3.25,62.56,18.26,94.83,20.97,31.45,13.77,51.15,13.45,51.98-.33.86-1.16,1.4-2.03,1.4-.26,0-.52-.05-.78-.15-1.12-.43-1.68-1.68-1.25-2.8.05-.14,3.81-10.78-2.93-28.74-.16,7.33-1.76,17.43-6.86,30.31-8.2,20.71,1.06,41.44,6.2,50.51,3.04-15.16,9.38-20.35,26.3-34.2Z"/>
          <path class="uuid-a179da58-3618-4ef8-a81e-a4b1db6d74b3" d="m1624.08,2998.34c-24.78-18.4-32.2-45.59-32.28-45.86l-1.92-7.25-2.26,7.15c-.55,1.74-13.34,42.86-5.16,71.1,7.28,25.14,4.41,30.6-11.47,60.93-1.2,2.29-2.47,4.72-3.81,7.3-19.31,37.14-3.05,66.92,18.5,99.25,1.5,2.25,2.83,4.43,4.04,6.55.4.96,5.69,14.8-4.86,41.44-11.76,29.68,8.82,58.23,9.7,59.43l3.19,4.35.71-5.35c2.41-18.11,6.88-21.76,25.69-37.16,3.06-2.51,6.48-5.31,10.31-8.51l.21-.2c43.68-47.8,24.52-89.21,6.78-117.09,47.02-72.16,9.37-116.2-17.38-136.08Zm7.49,250.12c-3.77,3.16-7.14,5.92-10.16,8.39-16.92,13.85-23.27,19.05-26.3,34.2-5.14-9.07-14.4-29.8-6.2-50.51,5.1-12.88,6.7-22.97,6.86-30.31,6.74,17.96,2.98,28.6,2.93,28.74-.42,1.12.14,2.37,1.25,2.8.26.1.52.15.78.15.87,0,1.7-.53,2.03-1.4.32-.82,7.51-20.53-13.45-51.98-21.51-32.26-36.51-59.73-18.26-94.83,1.34-2.58,2.61-5,3.81-7.29,15.8-30.18,19.55-37.35,11.79-64.16-5.92-20.45.01-49.08,3.28-61.9,3.85,9.66,13.01,27.69,31.56,41.47,25.32,18.81,60.78,60.36,17.37,128.55-1.39-2.11-2.75-4.15-4.05-6.08-5.18-7.71-9.66-14.38-10.63-18.82-5.66-25.84,5.66-54.31,5.77-54.59.45-1.11-.09-2.38-1.2-2.83-1.11-.45-2.38.09-2.83,1.2-.49,1.21-11.95,29.97-5.99,57.15,1.15,5.25,5.62,11.9,11.27,20.32,1.89,2.81,3.87,5.77,5.87,8.86,0,.01.01.02.02.03,17.89,27.74,36.65,66.61-5.51,112.84Z"/>
        </g>
      </g>
      <g>
        <g>
          <path class="uuid-d5a7d151-4386-46c9-9dff-311fb17720e1" d="m3217.41,2069.81c-55.66-72.59-217.39-128.64-354.66-153.6-29.6-7.51-60.07-11.72-91.26-12.28-.27-.02-.55-.05-.81-.07l.04.06c-2.11-.03-4.21-.06-6.32-.06h-227.28c-1.18,0-2.36.02-3.54.03l.02-.03c-.15.01-.31.03-.46.04-34.64.35-68.4,5.18-101.08,14.07-135.15,25.77-290.81,80.91-345.2,151.84-105.73,137.88-387.85,715.09-283.38,856.63,26.81,36.32,85.86,79.34,155.24,121.71v93.22c0,282.65,192.17,511.79,429.23,511.79h525.6c237.06,0,429.23-229.14,429.23-511.79v-91.54c70.57-42.91,130.84-86.6,158-123.4,104.47-141.54-177.65-718.75-283.38-856.63Z"/>
          <path class="uuid-a179da58-3618-4ef8-a81e-a4b1db6d74b3" d="m2224.57,3194.91l-265.85-146.76v93.22c0,282.65,192.17,511.79,429.23,511.79h525.6c237.06,0,429.23-229.14,429.23-511.79v-91.54l-256.59,145.07h-861.63Z"/>
          <path class="uuid-a179da58-3618-4ef8-a81e-a4b1db6d74b3" d="m3073.7,2118.72c14.63-77.25,20.22-133.67,20.22-133.67-22.46-10.04-46.54-19.32-71.44-27.76,1.07.36,2.15.72,3.21,1.08-.63,363.48-744.97,363.33-744.97-.46l1.47-.67c-24.95,8.46-49.09,17.75-71.59,27.81,0,0,5.59,56.42,20.22,133.67,27.32,144.26,24.42,292.62-7.81,435.86l-41.75,185.58,121.13,74.93,180.49,114.15h338.77l180.49-114.15,121.13-74.93-41.75-185.58c-32.23-143.24-35.13-291.6-7.81-435.86Z"/>
          <path class="uuid-38126479-77be-40be-975a-3546fd4d2807" d="m2843.12,2241.78c56.41,0,102.14-45.73,102.14-102.14,0-1.44-.05-2.86-.11-4.28-44.43,39.5-103.69,66.73-168.58,81.73,17.88,15.38,41.12,24.69,66.55,24.69Z"/>
          <circle class="uuid-38126479-77be-40be-975a-3546fd4d2807" cx="2776.28" cy="2376.95" r="102.14" transform="translate(-867.6 2659.32) rotate(-45)"/>
          <path class="uuid-38126479-77be-40be-975a-3546fd4d2807" d="m3058.73,2405.68c-5.45-66.2-4.76-132.8,2.11-198.94-7.76-1.89-15.87-2.91-24.21-2.91-56.41,0-102.14,45.73-102.14,102.14s45.73,102.14,102.14,102.14c7.59,0,14.98-.85,22.1-2.42Z"/>
          <path class="uuid-38126479-77be-40be-975a-3546fd4d2807" d="m3062.71,2190.01c2.86-23.85,6.51-47.62,10.99-71.29,9.85-51.98,15.59-94.5,18.3-116.77-45.84,10.06-80.16,50.88-80.16,99.74,0,37.72,20.46,70.63,50.87,88.32Z"/>
          <path class="uuid-38126479-77be-40be-975a-3546fd4d2807" d="m2222.44,2071.12c2.38,14.61,5.16,30.6,8.38,47.6,9.36,49.4,15.16,99.27,17.47,149.26,38.25-14.76,65.4-51.85,65.4-95.3,0-52.73-39.97-96.12-91.26-101.56Z"/>
          <path class="uuid-38126479-77be-40be-975a-3546fd4d2807" d="m2556.58,2222.53c-66.45-11.7-128.49-35.73-176.84-72.09-16.97,18.24-27.37,42.68-27.37,69.56,0,56.41,45.73,102.14,102.14,102.14s100.73-44.37,102.08-99.61Z"/>
          <path class="uuid-38126479-77be-40be-975a-3546fd4d2807" d="m2259.4,2347.37c-3.52,0-6.99.18-10.42.53-1.89,66.37-9.93,132.59-24.02,197.79,10.76,3.85,22.35,5.97,34.44,5.97,56.41,0,102.14-45.73,102.14-102.14s-45.73-102.14-102.14-102.14Z"/>
          <circle class="uuid-38126479-77be-40be-975a-3546fd4d2807" cx="2530.83" cy="2545.38" r="102.14"/>
          <path class="uuid-38126479-77be-40be-975a-3546fd4d2807" d="m1979.96,3300.72c46.21-9.78,80.89-50.79,80.89-99.91,0-56.41-45.73-102.14-102.14-102.14v42.7c0,55.64,7.48,109.2,21.25,159.35Z"/>
          <path class="uuid-38126479-77be-40be-975a-3546fd4d2807" d="m3264.1,3200.81c0,41.14,24.33,76.57,59.38,92.75,12.54-48.08,19.3-99.19,19.3-152.19v-39.96c-45.1,10.61-78.68,51.07-78.68,99.4Z"/>
          <circle class="uuid-38126479-77be-40be-975a-3546fd4d2807" cx="2800.31" cy="2748.87" r="131.78"/>
          <path class="uuid-38126479-77be-40be-975a-3546fd4d2807" d="m3081.51,2554.58c-4.06-18.06-7.66-36.2-10.79-54.4-53.69,3.03-96.3,47.51-96.3,101.96s45.73,102.14,102.14,102.14c13.08,0,25.57-2.49,37.06-6.96l-32.11-142.73Z"/>
          <circle class="uuid-38126479-77be-40be-975a-3546fd4d2807" cx="2352.37" cy="2778.51" r="102.14" transform="translate(-1275.71 2477.18) rotate(-45)"/>
        </g>
        <path class="uuid-deab5b8f-3b76-430e-9908-11d2401ec3d0" d="m2024.44,3413.59c75.97,143.92,210.36,239.57,363.51,239.57h525.6c153.15,0,287.54-95.65,363.51-239.57h-1252.62Z"/>
        <g>
          <g>
            <path class="uuid-d5a7d151-4386-46c9-9dff-311fb17720e1" d="m2770.67,1907.6c0,65.96-239.85,65.96-239.85,0v-136.92h239.85v136.92Z"/>
            <path class="uuid-d5a7d151-4386-46c9-9dff-311fb17720e1" d="m2770.65,1864.44c-79.93,67.96-159.34,67.96-239.82.04v-58.61h239.85l-.03,58.57Z"/>
            <ellipse class="uuid-d5a7d151-4386-46c9-9dff-311fb17720e1" cx="2650.75" cy="1721.21" rx="156.96" ry="172.26"/>
            <ellipse class="uuid-d5a7d151-4386-46c9-9dff-311fb17720e1" cx="2737.72" cy="1749.54" rx="30.84" ry="21.13"/>
            <ellipse class="uuid-d5a7d151-4386-46c9-9dff-311fb17720e1" cx="2580.41" cy="1749.54" rx="30.84" ry="21.13"/>
            <g>
              <ellipse class="uuid-d5a7d151-4386-46c9-9dff-311fb17720e1" cx="2591.78" cy="1702.79" rx="13.17" ry="19.24"/>
              <ellipse class="uuid-d5a7d151-4386-46c9-9dff-311fb17720e1" cx="2712.4" cy="1702.79" rx="13.17" ry="19.24"/>
              <path class="uuid-d5a7d151-4386-46c9-9dff-311fb17720e1" d="m2636.83,1629.11c-2.42,25.07-5.59,53.04-1.94,78.1.47,3.2,2.1,9.8,6.94,8.67,3.48-.81,5.35-2.5,8.32-4.67,6.42-5.27,12.71-4.29,18.88,2.95,2.66,6.34-.66,13.85-4.16,19.05-1.74,2.58,2.43,4.99,4.16,2.43,9.05-13.42,6.91-35.16-13.22-32.34-5.84.82-15.73,13.68-16.39-1.27-.33-7.6-.4-15.2-.4-22.81,0-16.73,1.02-33.45,2.62-50.1.3-3.09-4.52-3.06-4.82,0h0Z"/>
              <path class="uuid-d5a7d151-4386-46c9-9dff-311fb17720e1" d="m2559.72,1652.97c7.59-13.61,22.82-20.93,38.19-17.94,3.95.77,5.63-5.27,1.67-6.04-18.1-3.53-36.24,4.65-45.26,20.82-1.97,3.53,3.44,6.69,5.41,3.16h0Z"/>
              <path class="uuid-d5a7d151-4386-46c9-9dff-311fb17720e1" d="m2747.19,1649.81c-9.02-16.17-27.17-24.34-45.26-20.82-3.96.77-2.28,6.81,1.67,6.04,15.37-2.99,30.59,4.33,38.19,17.94,1.97,3.53,7.38.37,5.41-3.16h0Z"/>
              <path class="uuid-d5a7d151-4386-46c9-9dff-311fb17720e1" d="m2627.55,1751.35c11.26,31.2,54.74,29.74,62.94-2.73.82-3.25-4.19-4.63-5.02-1.38-6.84,27.09-43.29,29.36-52.91,2.73-1.13-3.13-6.16-1.78-5.02,1.38h0Z"/>
            </g>
            <ellipse class="uuid-d5a7d151-4386-46c9-9dff-311fb17720e1" cx="2807.71" cy="1714.5" rx="42.43" ry="55.89" transform="translate(-394.06 958.56) rotate(-18.13)"/>
            <ellipse class="uuid-d5a7d151-4386-46c9-9dff-311fb17720e1" cx="2500" cy="1714.5" rx="55.89" ry="42.43" transform="translate(92.83 3557.07) rotate(-71.87)"/>
          </g>
          <g>
            <path class="uuid-d5a7d151-4386-46c9-9dff-311fb17720e1" d="m2770.67,1907.6c0,65.96-239.85,65.96-239.85,0v-136.92h239.85v136.92Z"/>
            <path class="uuid-d9eb343b-05d8-4823-89f6-8bca674f81b9" d="m2770.65,1864.44c-79.93,67.96-159.34,67.96-239.82.04v-58.61h239.85l-.03,58.57Z"/>
            <ellipse class="uuid-d5a7d151-4386-46c9-9dff-311fb17720e1" cx="2650.75" cy="1721.21" rx="156.96" ry="172.26"/>
            <ellipse class="uuid-7ff26c7c-313f-4ed0-868a-2486658c48db" cx="2737.72" cy="1749.54" rx="30.84" ry="21.13"/>
            <ellipse class="uuid-7ff26c7c-313f-4ed0-868a-2486658c48db" cx="2580.41" cy="1749.54" rx="30.84" ry="21.13"/>
            <g>
              <ellipse class="uuid-6c62a830-e015-40f5-9f8e-10782b2d43b5" cx="2591.78" cy="1702.79" rx="13.17" ry="19.24"/>
              <ellipse class="uuid-6c62a830-e015-40f5-9f8e-10782b2d43b5" cx="2712.4" cy="1702.79" rx="13.17" ry="19.24"/>
              <path class="uuid-6c62a830-e015-40f5-9f8e-10782b2d43b5" d="m2636.83,1629.11c-2.42,25.07-5.59,53.04-1.94,78.1.47,3.2,2.1,9.8,6.94,8.67,3.48-.81,5.35-2.5,8.32-4.67,6.42-5.27,12.71-4.29,18.88,2.95,2.66,6.34-.66,13.85-4.16,19.05-1.74,2.58,2.43,4.99,4.16,2.43,9.05-13.42,6.91-35.16-13.22-32.34-5.84.82-15.73,13.68-16.39-1.27-.33-7.6-.4-15.2-.4-22.81,0-16.73,1.02-33.45,2.62-50.1.3-3.09-4.52-3.06-4.82,0h0Z"/>
              <path class="uuid-6c62a830-e015-40f5-9f8e-10782b2d43b5" d="m2559.72,1652.97c7.59-13.61,22.82-20.93,38.19-17.94,3.95.77,5.63-5.27,1.67-6.04-18.1-3.53-36.24,4.65-45.26,20.82-1.97,3.53,3.44,6.69,5.41,3.16h0Z"/>
              <path class="uuid-6c62a830-e015-40f5-9f8e-10782b2d43b5" d="m2747.19,1649.81c-9.02-16.17-27.17-24.34-45.26-20.82-3.96.77-2.28,6.81,1.67,6.04,15.37-2.99,30.59,4.33,38.19,17.94,1.97,3.53,7.38.37,5.41-3.16h0Z"/>
              <path class="uuid-6f4805bb-1895-49e5-b578-197ce66d3b0d" d="m2627.55,1751.35c11.26,31.2,54.74,29.74,62.94-2.73.82-3.25-4.19-4.63-5.02-1.38-6.84,27.09-43.29,29.36-52.91,2.73-1.13-3.13-6.16-1.78-5.02,1.38h0Z"/>
            </g>
            <ellipse class="uuid-d5a7d151-4386-46c9-9dff-311fb17720e1" cx="2807.71" cy="1714.5" rx="42.43" ry="55.89" transform="translate(-394.06 958.56) rotate(-18.13)"/>
            <ellipse class="uuid-d5a7d151-4386-46c9-9dff-311fb17720e1" cx="2500" cy="1714.5" rx="55.89" ry="42.43" transform="translate(92.83 3557.07) rotate(-71.87)"/>
          </g>
        </g>
        <g>
          <path class="uuid-ad4640f7-39c3-46c4-b79c-2b3933cb6156" d="m2843.12,1455.09l-83.47,45.63,3.18-20.7-27.04,37.82h0c10.16-.08,47.14,2.62,50.08,45.39l48.93-24.2h-34.93l43.24-83.94Z"/>
          <path class="uuid-6c62a830-e015-40f5-9f8e-10782b2d43b5" d="m2733.22,1517.94s53.72-4.76,52.87,52.11l-52.87-52.11Z"/>
          <path class="uuid-ad4640f7-39c3-46c4-b79c-2b3933cb6156" d="m2454.51,1460.36l83.47,45.63-3.18-20.7,27.04,37.82h0c-10.16-.08-47.14,2.62-50.08,45.39l-48.93-24.2h34.93l-43.24-83.94Z"/>
          <path class="uuid-6c62a830-e015-40f5-9f8e-10782b2d43b5" d="m2564.41,1523.21s-53.72-4.76-52.87,52.11l52.87-52.11Z"/>
          <path class="uuid-ad4640f7-39c3-46c4-b79c-2b3933cb6156" d="m2650.75,1495c-88.1,0-159.52,71.42-159.52,159.52,0,2.93.09,5.85.25,8.74,3.67-1.64,7.46-2.7,11.26-3.18l10.58,52.78,10.92-86.66c.02-.18.03-.36.04-.54,7.79-1.83,15.59-3.49,23.38-4.98l6.23-15.31,5.38,13.22c9.44-1.61,18.88-2.98,28.32-4.1l10.26-25.22,9.46,23.24c7.66-.63,15.32-1.14,22.98-1.45l14.54-35.73,14.37,35.31c8.88.11,17.76.45,26.65,1l9.1-22.37,9.7,23.84c14.35,1.38,28.7,3.34,43.06,5.85l5.53-13.59,6.43,15.8c6.18,1.22,12.36,2.54,18.54,3.97,0,.35,0,.7.05,1.07l10.92,86.66,10.63-53.05c3.44-.08,6.89.34,10.3,1.26.09-2.18.15-4.36.15-6.55,0-88.1-71.42-159.52-159.52-159.52Z"/>
        </g>
        <g>
          <rect class="uuid-88a49259-9948-430d-90b9-ca6463c25f84" x="2244.29" y="3409.32" width="832.26" height="57.14"/>
          <path class="uuid-7090b106-f918-4f1a-8c45-c26bf00433df" d="m3068.18,3409.32h-823.89l-49.85-541.85c-3.6-39.18,27.24-72.99,66.58-72.99h786.09c39.14,0,69.91,33.46,66.63,72.46l-45.56,542.38Z"/>
          <g>
            <path class="uuid-a179da58-3618-4ef8-a81e-a4b1db6d74b3" d="m2654.07,3043.67c-32.16,0-58.23,26.07-58.23,58.23s26.07,58.24,58.23,58.24,58.23-26.07,58.23-58.24-26.07-58.23-58.23-58.23Zm0,114.08c-30.84,0-55.84-25-55.84-55.84s25-55.84,55.84-55.84,55.84,25,55.84,55.84-25,55.84-55.84,55.84Z"/>
            <circle class="uuid-a179da58-3618-4ef8-a81e-a4b1db6d74b3" cx="2654.07" cy="3101.9" r="48.99" transform="translate(-832.91 5224.83) rotate(-80.78)"/>
          </g>
        </g>
        <g>
          <g>
            <g>
              <path class="uuid-aec2b766-5c38-4c16-9fc7-af78df902ef8" d="m2027.73,4503.37s-221.61,89.71-241.87,106.13c-20.25,16.43-10.2,92.33-10.2,92.33l556.03.51c10.89.01,19.19-9.74,17.45-20.49l-29.73-178.48h-291.67Z"/>
              <path class="uuid-6c62a830-e015-40f5-9f8e-10782b2d43b5" d="m2270.44,4591.65c28.29-8.18,54.66-8.83,62.61-8.82l-1.51-9.31c-9.87.05-35.43,1.06-63.45,9.12-46.2,13.3-76.84,39.76-88.82,76.6l-287.66-2.63c-20.64-37.72-43.2-70.79-46.82-76.04-1.46.64-2.91,1.28-4.33,1.92l-3.81,2.66c.24.34,22.85,32.85,44.28,71.37l-107.68-.98c-.08,3.13-.1,6.25-.07,9.3l573.24,5.23.04-4.65-.76-4.66-156.64-1.43c11.66-32.67,39-55.43,81.37-67.68Z"/>
              <path class="uuid-6c62a830-e015-40f5-9f8e-10782b2d43b5" d="m1982.33,4596.34c-2.14,1.09-4.79.37-6.07-1.71l-35.05-56.95c-1.35-2.19-.66-5.05,1.52-6.4,2.17-1.36,5.05-.67,6.4,1.52l35.05,56.95c1.35,2.19.66,5.05-1.52,6.4-.11.07-.22.13-.33.19Z"/>
              <path class="uuid-6c62a830-e015-40f5-9f8e-10782b2d43b5" d="m2013.97,4577.4c-2.13,1.08-4.77.38-6.06-1.69l-31.58-50.62c-1.36-2.18-.7-5.05,1.49-6.41,2.19-1.35,5.05-.69,6.41,1.49l31.58,50.62c1.36,2.18.7,5.05-1.49,6.41-.12.07-.23.14-.35.2Z"/>
              <path class="uuid-6c62a830-e015-40f5-9f8e-10782b2d43b5" d="m1953.22,4602.3c-2.12,1.08-4.75.38-6.05-1.67l-31.88-50.6c-1.37-2.17-.72-5.05,1.46-6.42,2.16-1.39,5.05-.72,6.42,1.46l31.88,50.6c1.37,2.17.72,5.05-1.46,6.42-.12.08-.25.15-.37.21Z"/>
              <path class="uuid-d5a7d151-4386-46c9-9dff-311fb17720e1" d="m2027.85,4399.1h291.55v104.27c-97.18,12.87-194.37,12.87-291.55,0v-104.27Z"/>
            </g>
            <path class="uuid-83dbd728-7c55-4125-85f1-c7cc1dfb87db" d="m2181.27,3166.8h0c-135.92,0-246.1,120.99-246.1,270.24v962.06h492.19v-962.06c0-149.25-110.18-270.24-246.1-270.24Z"/>
            <g>
              <path class="uuid-e4f3ddff-f7dc-4e95-ba6b-6da282e95d11" d="m2335.04,3270.7c-2.76,0-5-2.24-5-5v-25c0-2.76,2.24-5,5-5s5,2.24,5,5v25c0,2.76-2.24,5-5,5Z"/>
              <path class="uuid-e4f3ddff-f7dc-4e95-ba6b-6da282e95d11" d="m2335.04,4176.2c-2.76,0-5-2.24-5-5v-50.31c0-2.76,2.24-5,5-5s5,2.24,5,5v50.31c0,2.76-2.24,5-5,5Zm0-100.61c-2.76,0-5-2.24-5-5v-50.31c0-2.76,2.24-5,5-5s5,2.24,5,5v50.31c0,2.76-2.24,5-5,5Zm0-100.61c-2.76,0-5-2.24-5-5v-50.31c0-2.76,2.24-5,5-5s5,2.24,5,5v50.31c0,2.76-2.24,5-5,5Zm0-100.61c-2.76,0-5-2.24-5-5v-50.31c0-2.76,2.24-5,5-5s5,2.24,5,5v50.31c0,2.76-2.24,5-5,5Zm0-100.61c-2.76,0-5-2.24-5-5v-50.31c0-2.76,2.24-5,5-5s5,2.24,5,5v50.31c0,2.76-2.24,5-5,5Zm0-100.61c-2.76,0-5-2.24-5-5v-50.31c0-2.76,2.24-5,5-5s5,2.24,5,5v50.31c0,2.76-2.24,5-5,5Zm0-100.61c-2.76,0-5-2.24-5-5v-50.31c0-2.76,2.24-5,5-5s5,2.24,5,5v50.31c0,2.76-2.24,5-5,5Zm0-100.61c-2.76,0-5-2.24-5-5v-50.31c0-2.76,2.24-5,5-5s5,2.24,5,5v50.31c0,2.76-2.24,5-5,5Zm0-100.61c-2.76,0-5-2.24-5-5v-50.31c0-2.76,2.24-5,5-5s5,2.24,5,5v50.31c0,2.76-2.24,5-5,5Z"/>
              <path class="uuid-e4f3ddff-f7dc-4e95-ba6b-6da282e95d11" d="m2335.04,4251.51c-2.76,0-5-2.24-5-5v-25c0-2.76,2.24-5,5-5s5,2.24,5,5v25c0,2.76-2.24,5-5,5Z"/>
            </g>
            <rect class="uuid-deab5b8f-3b76-430e-9908-11d2401ec3d0" x="1935.17" y="4246.51" width="492.19" height="152.6"/>
            <path class="uuid-e4f3ddff-f7dc-4e95-ba6b-6da282e95d11" d="m2308.7,4251.51c-2.76,0-5-2.24-5-5v-1040.7c0-2.76,2.24-5,5-5s5,2.24,5,5v1040.7c0,2.76-2.24,5-5,5Z"/>
          </g>
          <g>
            <g>
              <path class="uuid-aec2b766-5c38-4c16-9fc7-af78df902ef8" d="m3257.64,4503.37s221.61,89.71,241.87,106.13c20.25,16.43,10.2,92.33,10.2,92.33l-556.03.51c-10.89.01-19.19-9.74-17.45-20.49l29.73-178.48h291.67Z"/>
              <path class="uuid-6c62a830-e015-40f5-9f8e-10782b2d43b5" d="m3014.92,4591.65c-28.29-8.18-54.66-8.83-62.61-8.82l1.51-9.31c9.87.05,35.43,1.06,63.45,9.12,46.2,13.3,76.84,39.76,88.82,76.6l287.66-2.63c20.64-37.72,43.2-70.79,46.82-76.04,1.46.64,2.91,1.28,4.33,1.92l3.81,2.66c-.24.34-22.85,32.85-44.28,71.37l107.68-.98c.08,3.13.1,6.25.07,9.3l-573.24,5.23-.04-4.65.76-4.66,156.64-1.43c-11.66-32.67-39-55.43-81.37-67.68Z"/>
              <path class="uuid-6c62a830-e015-40f5-9f8e-10782b2d43b5" d="m3303.04,4596.34c2.14,1.09,4.79.37,6.07-1.71l35.05-56.95c1.35-2.19.66-5.05-1.52-6.4-2.17-1.36-5.05-.67-6.4,1.52l-35.05,56.95c-1.35,2.19-.66,5.05,1.52,6.4.11.07.22.13.33.19Z"/>
              <path class="uuid-6c62a830-e015-40f5-9f8e-10782b2d43b5" d="m3271.4,4577.4c2.13,1.08,4.77.38,6.06-1.69l31.58-50.62c1.36-2.18.7-5.05-1.49-6.41-2.19-1.35-5.05-.69-6.41,1.49l-31.58,50.62c-1.36,2.18-.7,5.05,1.49,6.41.12.07.23.14.35.2Z"/>
              <path class="uuid-6c62a830-e015-40f5-9f8e-10782b2d43b5" d="m3332.15,4602.3c2.12,1.08,4.75.38,6.05-1.67l31.88-50.6c1.37-2.17.72-5.05-1.46-6.42-2.16-1.39-5.05-.72-6.42,1.46l-31.88,50.6c-1.37,2.17-.72,5.05,1.46,6.42.12.08.25.15.37.21Z"/>
              <path class="uuid-d5a7d151-4386-46c9-9dff-311fb17720e1" d="m3257.52,4399.1h-291.55v104.27c97.18,12.87,194.37,12.87,291.55,0v-104.27Z"/>
            </g>
            <path class="uuid-83dbd728-7c55-4125-85f1-c7cc1dfb87db" d="m3138.77,3166.8h0c-135.92,0-246.1,120.99-246.1,270.24v962.06h492.19v-962.06c0-149.25-110.18-270.24-246.1-270.24Z"/>
            <g>
              <path class="uuid-e4f3ddff-f7dc-4e95-ba6b-6da282e95d11" d="m2983.32,3270.7c-2.76,0-5-2.24-5-5v-25c0-2.76,2.24-5,5-5s5,2.24,5,5v25c0,2.76-2.24,5-5,5Z"/>
              <path class="uuid-e4f3ddff-f7dc-4e95-ba6b-6da282e95d11" d="m2983.32,4176.2c-2.76,0-5-2.24-5-5v-50.31c0-2.76,2.24-5,5-5s5,2.24,5,5v50.31c0,2.76-2.24,5-5,5Zm0-100.61c-2.76,0-5-2.24-5-5v-50.31c0-2.76,2.24-5,5-5s5,2.24,5,5v50.31c0,2.76-2.24,5-5,5Zm0-100.61c-2.76,0-5-2.24-5-5v-50.31c0-2.76,2.24-5,5-5s5,2.24,5,5v50.31c0,2.76-2.24,5-5,5Zm0-100.61c-2.76,0-5-2.24-5-5v-50.31c0-2.76,2.24-5,5-5s5,2.24,5,5v50.31c0,2.76-2.24,5-5,5Zm0-100.61c-2.76,0-5-2.24-5-5v-50.31c0-2.76,2.24-5,5-5s5,2.24,5,5v50.31c0,2.76-2.24,5-5,5Zm0-100.61c-2.76,0-5-2.24-5-5v-50.31c0-2.76,2.24-5,5-5s5,2.24,5,5v50.31c0,2.76-2.24,5-5,5Zm0-100.61c-2.76,0-5-2.24-5-5v-50.31c0-2.76,2.24-5,5-5s5,2.24,5,5v50.31c0,2.76-2.24,5-5,5Zm0-100.61c-2.76,0-5-2.24-5-5v-50.31c0-2.76,2.24-5,5-5s5,2.24,5,5v50.31c0,2.76-2.24,5-5,5Zm0-100.61c-2.76,0-5-2.24-5-5v-50.31c0-2.76,2.24-5,5-5s5,2.24,5,5v50.31c0,2.76-2.24,5-5,5Z"/>
              <path class="uuid-e4f3ddff-f7dc-4e95-ba6b-6da282e95d11" d="m2983.32,4251.51c-2.76,0-5-2.24-5-5v-25c0-2.76,2.24-5,5-5s5,2.24,5,5v25c0,2.76-2.24,5-5,5Z"/>
            </g>
            <rect class="uuid-deab5b8f-3b76-430e-9908-11d2401ec3d0" x="2892.67" y="4246.51" width="492.19" height="152.6"/>
            <path class="uuid-e4f3ddff-f7dc-4e95-ba6b-6da282e95d11" d="m3010.09,4251.51c-2.76,0-5-2.24-5-5v-1040.7c0-2.76,2.24-5,5-5s5,2.24,5,5v1040.7c0,2.76-2.24,5-5,5Z"/>
          </g>
        </g>
      </g>
    </g>
  </g>
</svg>